<!-- icon666.com - MILLIONS vector ICONS FREE --><svg viewBox="0 0 64 64" xmlns="http://www.w3.org/2000/svg"><g id="_17-Coding" data-name="17-Coding"><path d="m19 59h26v3h-26z" fill="#979faf"/><path d="m40 50 5 9h-26l5-9z" fill="#adb2c7"/><path d="m63 4v38h-62v-38a2.006 2.006 0 0 1 2-2h58a2.006 2.006 0 0 1 2 2z" fill="#8dd5f6"/><path d="m63 42v6a2.006 2.006 0 0 1 -2 2h-58a2.006 2.006 0 0 1 -2-2v-6z" fill="#dfe1ea"/><path d="m61 2h-58a2.006 2.006 0 0 0 -2 2v14.844a26.743 26.743 0 0 0 8.2 1.156c7.6 0 7.6-2 15.2-2s7.6 2 15.2 2 7.6-2 15.2-2a26.787 26.787 0 0 1 8.2 1.157v-15.157a2.006 2.006 0 0 0 -2-2z" fill="#aedff7"/><path d="m61 2h-58a2.006 2.006 0 0 0 -2 2v7.844a26.743 26.743 0 0 0 8.2 1.156c7.6 0 7.6-2 15.2-2s7.6 2 15.2 2 7.6-2 15.2-2a26.787 26.787 0 0 1 8.2 1.157v-8.157a2.006 2.006 0 0 0 -2-2z" fill="#f6fafd"/><path d="m24 50-1.832 3.3a25.289 25.289 0 0 0 6.432.7c6.6 0 7.475-1.507 12.57-1.9l-1.17-2.1z" fill="#7e8596"/><path d="m61 1h-58a3 3 0 0 0 -3 3v44a3 3 0 0 0 3 3h19.3l-4.175 7.514a1 1 0 0 0 -.125.486v2h-2v2h32v-2h-2v-2a1 1 0 0 0 -.126-.486l-4.174-7.514h19.3a3 3 0 0 0 3-3v-44a3 3 0 0 0 -3-3zm-58 2h58a1 1 0 0 1 1 1v37h-60v-37a1 1 0 0 1 1-1zm17 58v-1h24v1zm23.3-3h-22.6l3.888-7h14.824zm17.7-9h-58a1 1 0 0 1 -1-1v-5h60v5a1 1 0 0 1 -1 1z"/><path d="m16 34a8.009 8.009 0 0 0 8-8h-2a6 6 0 0 1 -12 0v-8a6 6 0 0 1 12 0h2a8 8 0 0 0 -16 0v8a8.009 8.009 0 0 0 8 8z"/><path d="m29 26h2v-3h3v-2h-3v-3h-2v3h-3v2h3z"/><path d="m40 26h2v-3h3v-2h-3v-3h-2v3h-3v2h3z"/><path d="m38 36h21v2h-21z"/><path d="m38 32h21v2h-21z"/><path d="m38 10h21v2h-21z"/><path d="m38 6h21v2h-21z"/><path d="m54 28h5v2h-5z"/><path d="m47 28h5v2h-5z"/><path d="m54 14h5v2h-5z"/><path d="m47 14h5v2h-5z"/></g></svg>