<!-- icon666.com - MILLIONS vector ICONS FREE --><svg version="1.1" id="Capa_1" xmlns="http://www.w3.org/2000/svg" xmlns:xlink="http://www.w3.org/1999/xlink" x="0px" y="0px" viewBox="0 0 504.155 504.155" style="enable-background:new 0 0 504.155 504.155;" xml:space="preserve"><circle style="fill:#F05F50;" cx="252.077" cy="252.093" r="252.062"/><path style="fill:#4EBD9E;" d="M341.874,7.909H84.299c-17.329,0-31.508,14.178-31.508,31.508V464.77 c0,17.329,14.178,31.508,31.508,31.508h336.345c17.329,0,31.508-14.178,31.508-31.508V117.398L341.874,7.909z"/><path style="fill:#183651;" d="M419.856,504.155H84.299c-22.055,0-39.385-17.329-39.385-39.385V39.417 c0-22.055,17.329-39.385,39.385-39.385h258.363c2.363,0,3.938,0.788,5.514,2.363l109.489,109.489 c1.575,1.575,2.363,3.151,2.363,5.514V464.77C459.241,486.826,441.911,504.155,419.856,504.155z M84.299,15.786 c-13.391,0-23.631,10.24-23.631,23.631V464.77c0,13.391,10.24,23.631,23.631,23.631h336.345c13.391,0,23.631-10.24,23.631-23.631 V120.549L338.724,15.786H84.299z"/><polygon style="fill:#FFFFFF;" points="84.299,464.77 84.299,39.417 341.874,39.417 419.856,117.398 419.856,464.77 "/><path style="fill:#FCBD5E;" d="M341.874,7.909V85.89c0,17.329,14.178,31.508,31.508,31.508h77.982L341.874,7.909z"/><path style="fill:#183651;" d="M451.364,125.275L451.364,125.275h-77.982c-22.055,0-39.385-17.329-39.385-39.385V7.909 c0-3.151,1.575-6.302,4.726-7.089c3.151-1.575,6.302-0.788,8.665,1.575l109.489,109.489c2.363,2.363,3.151,5.514,1.575,8.665 C457.665,122.912,454.514,125.275,451.364,125.275z M349.751,26.813V85.89c0,13.391,10.24,23.631,23.631,23.631h59.077 L349.751,26.813z"/><rect x="112.656" y="77.226" style="fill:#E1E6E8;" width="59.865" height="310.351"/><g><path style="fill:#183651;" d="M171.733,395.453h-59.865c-4.726,0-7.877-3.151-7.877-7.877V77.226c0-4.726,3.151-7.877,7.877-7.877 h59.865c4.726,0,7.877,3.151,7.877,7.877v310.351C179.61,391.515,176.459,395.453,171.733,395.453z M120.533,379.7h44.111V85.103 h-44.111C120.533,85.103,120.533,379.7,120.533,379.7z"/><path style="fill:#183651;" d="M133.136,122.124h-20.48c-4.726,0-7.877-3.151-7.877-7.877s3.151-7.877,7.877-7.877h20.48 c4.726,0,7.877,3.151,7.877,7.877C141.013,118.186,137.074,122.124,133.136,122.124z"/><path style="fill:#183651;" d="M133.136,169.386h-20.48c-4.726,0-7.877-3.151-7.877-7.877c0-4.726,3.151-7.877,7.877-7.877h20.48 c4.726,0,7.877,3.151,7.877,7.877C141.013,165.447,137.074,169.386,133.136,169.386z"/><path style="fill:#183651;" d="M133.136,216.647h-20.48c-4.726,0-7.877-3.151-7.877-7.877c0-4.726,3.151-7.877,7.877-7.877h20.48 c4.726,0,7.877,3.151,7.877,7.877C141.013,212.709,137.074,216.647,133.136,216.647z"/><path style="fill:#183651;" d="M133.136,263.909h-20.48c-4.726,0-7.877-3.151-7.877-7.877c0-4.726,3.151-7.877,7.877-7.877h20.48 c4.726,0,7.877,3.151,7.877,7.877C141.013,259.97,137.074,263.909,133.136,263.909z"/><path style="fill:#183651;" d="M133.136,311.17h-20.48c-4.726,0-7.877-3.151-7.877-7.877s3.151-7.877,7.877-7.877h20.48 c4.726,0,7.877,3.151,7.877,7.877C141.013,307.232,137.074,311.17,133.136,311.17z"/><path style="fill:#183651;" d="M133.136,358.432h-20.48c-4.726,0-7.877-3.151-7.877-7.877s3.151-7.877,7.877-7.877h20.48 c4.726,0,7.877,3.151,7.877,7.877S137.074,358.432,133.136,358.432z"/></g><polygon style="fill:#E1E6E8;" points="168.582,441.14 388.348,286.752 388.348,441.14 "/><path style="fill:#183651;" d="M388.348,449.017H168.582c-3.151,0-6.302-2.363-7.877-5.514c-0.788-3.151,0-7.089,3.151-8.665 l219.766-155.175c2.363-1.575,5.514-1.575,7.877-0.788c2.363,1.575,3.938,3.938,3.938,7.089v154.388 C396.225,445.866,393.074,449.017,388.348,449.017z M193.001,433.263h187.471V301.718L193.001,433.263z"/><polygon style="fill:#FFFFFF;" points="285.948,404.118 351.327,357.644 351.327,404.118 "/><path style="fill:#183651;" d="M351.327,411.995h-65.378c-3.151,0-6.302-2.363-7.877-5.514c-0.788-3.151,0-7.089,3.151-8.665 l65.378-45.686c2.363-1.575,5.514-1.575,7.877-0.788c2.363,1.575,3.938,3.938,3.938,7.089v45.686 C359.204,408.057,355.265,411.995,351.327,411.995z M311.154,396.241h32.295v-22.843L311.154,396.241z"/><rect x="223.721" y="80.377" style="fill:#FFFFFF;" width="85.071" height="85.071"/><path style="fill:#183651;" d="M308.791,173.324h-85.071c-4.726,0-7.877-3.151-7.877-7.877V80.377c0-4.726,3.151-7.877,7.877-7.877 h85.071c4.726,0,7.877,3.151,7.877,7.877v85.071C316.668,169.386,312.73,173.324,308.791,173.324z M231.597,157.57h69.317V88.253 h-69.317L231.597,157.57L231.597,157.57z"/><circle style="fill:#FFFFFF;" cx="308.791" cy="245.004" r="42.535"/><g><path style="fill:#183651;" d="M308.791,295.417c-27.569,0-50.412-22.843-50.412-50.412s22.843-50.412,50.412-50.412 c27.569,0,50.412,22.843,50.412,50.412C359.204,273.361,336.361,295.417,308.791,295.417z M308.791,210.346 c-18.905,0-34.658,15.754-34.658,34.658s15.754,34.658,34.658,34.658s34.658-15.754,34.658-34.658S327.696,210.346,308.791,210.346 z"/><rect x="215.844" y="224.524" style="fill:#183651;" width="15.754" height="15.754"/><rect x="215.844" y="263.909" style="fill:#183651;" width="15.754" height="15.754"/><rect x="215.844" y="303.293" style="fill:#183651;" width="15.754" height="15.754"/></g></svg>