<!-- icon666.com - MILLIONS vector ICONS FREE --><svg xmlns="http://www.w3.org/2000/svg" xmlns:xlink="http://www.w3.org/1999/xlink" version="1.1" id="Capa_1" x="0px" y="0px" viewBox="0 0 512 512" style="enable-background:new 0 0 512 512;" xml:space="preserve"><g transform="translate(0.000000,640.000000) scale(0.100000,-0.100000)"><path d="M137.8,5662.822c-64.307-28.709-88.422-50.527-115.982-104.499c-22.966-45.933-28.708-137.8-11.483-184.881 c5.742-14.929,26.412-42.489,44.785-60.862c18.373-19.522,37.895-52.823,42.488-73.493 c24.115-113.685,141.245-229.667,230.815-229.667c10.335,0,36.747-18.373,58.565-40.192l39.044-40.191h-50.527 c-27.56,0-75.79-8.039-106.795-17.225c-60.862-17.225-153.877-88.422-153.877-115.982c0-9.187-20.67-37.895-45.933-62.01 C13.78,4679.848,0,4647.695,0,4571.905c0-127.465,90.718-217.035,220.48-217.035c33.302,1.148,73.493,8.038,89.57,16.077 c18.373,10.335,48.23,13.78,87.273,10.335c72.345-8.039,129.762,10.335,177.992,55.12c19.522,18.373,47.082,33.301,60.862,33.301 c47.081,1.149,120.575,43.637,155.025,93.015c56.268,76.939,39.043,126.317-21.819,63.159 c-28.708-32.154-112.536-64.307-164.211-64.307c-22.967,0-48.23-13.78-78.087-39.043c-53.972-49.379-106.795-60.862-164.212-36.747 c-39.043,16.077-45.933,16.077-67.751,1.148c-41.34-28.708-114.834-21.818-150.432,12.632 c-44.785,44.785-42.488,118.278,4.593,168.805c19.522,19.522,43.637,55.12,55.12,76.938 c25.264,51.675,93.015,88.422,181.437,98.757c36.747,4.593,81.532,18.373,98.757,29.857c17.225,12.631,50.526,25.263,72.345,28.708 c41.34,6.89,70.048,29.857,58.565,47.082c-3.445,5.741-29.857,17.225-57.417,24.115c-39.043,9.186-63.158,26.411-101.053,70.048 c-27.56,32.153-59.714,57.417-71.197,57.417c-42.488,0-124.02,49.378-156.173,94.163c-18.374,24.115-35.599,65.455-40.192,90.718 c-4.593,27.56-20.67,58.565-41.34,78.087c-26.412,27.56-33.302,43.637-33.302,83.828c0,95.312,98.757,148.135,179.14,95.312 c20.67-12.632,55.12-21.818,96.46-21.818c95.312-3.445,165.36-47.082,203.255-128.614c17.225-39.043,35.599-62.01,47.082-62.01 c55.12,0,140.097-95.311,140.097-157.321c0-11.484,4.593-27.56,10.335-36.747c16.076-24.115,42.488,2.297,51.674,49.378 c4.594,21.819,17.225,51.675,28.709,65.455c11.483,14.929,25.263,45.934,29.856,67.752c19.522,89.57,74.642,150.432,158.47,173.398 c26.412,6.89,62.01,25.264,78.087,40.192c65.455,62.01,166.508,36.747,194.068-45.933c11.484-36.747,10.335-48.23-10.335-90.719 c-13.78-27.56-24.115-72.345-24.115-101.053c0-62.01-28.708-112.537-81.531-141.245c-25.264-13.78-48.23-40.192-65.455-78.087 c-21.819-44.785-40.192-63.158-89.57-91.866c-34.45-19.522-60.862-40.192-58.565-48.23c8.038-21.819,106.795-11.484,158.47,18.373 c26.411,13.78,58.565,45.933,72.345,68.9c12.631,24.115,45.933,58.565,71.196,76.938c58.565,41.34,99.905,120.575,95.312,182.585 c-2.297,29.857,4.593,56.269,18.373,78.087c98.757,151.58-75.79,370.911-250.336,313.495 c-26.412-9.187-66.604-32.153-88.422-51.675c-21.818-18.373-60.862-41.34-87.273-48.23 c-82.68-24.115-157.322-114.833-175.695-212.442l-9.187-48.23l-14.928,31.005c-8.038,18.374-34.45,41.34-58.565,51.675 c-28.708,13.78-49.378,34.45-62.01,63.159c-42.488,91.866-143.542,158.47-242.298,158.47c-32.154,0-64.307,8.038-82.68,20.67 c-36.747,26.411-99.905,48.229-133.207,48.229C199.81,5686.936,166.508,5675.453,137.8,5662.822z" fill="#000000" style="fill: rgb(255, 255, 255);"></path><path d="M2731.884,5660.525c-140.096-47.082-207.848-111.388-262.968-248.04c-17.225-41.34-63.158-127.465-101.053-190.623 l-70.048-114.834l80.383-3.445c43.637-2.296,79.235-6.89,79.235-10.335s-16.077-34.45-35.598-68.9 c-19.522-34.45-33.302-65.455-29.857-67.751c3.445-3.445,44.785,0,91.867,6.89c47.081,8.038,124.019,12.631,172.249,9.186 c141.245-6.89,146.987-16.076,203.255-374.356c39.044-244.595,79.235-347.945,196.365-507.564 c82.68-113.684,304.309-321.533,341.055-321.533c27.56,0,11.484,27.56-67.751,112.537 c-152.729,166.508-285.935,390.433-326.127,548.903c-9.187,37.895-29.857,157.322-45.933,267.562 c-33.302,225.073-49.379,273.303-104.499,321.533c-53.971,48.23-118.278,63.158-227.37,53.972l-89.57-8.039l29.857,50.527 c16.077,28.708,25.263,53.972,21.818,58.565c-3.445,3.445-29.856,6.89-57.416,6.89h-50.527l34.45,60.862 c18.373,32.153,44.785,88.421,57.417,124.02c48.23,127.465,144.69,192.92,285.935,194.068c148.135,0,227.37-51.675,414.548-274.452 c119.427-142.393,153.877-174.546,291.677-281.341c121.723-93.015,328.423-308.902,445.553-466.224 c248.04-330.72,566.128-857.804,760.196-1260.869c83.829-175.695,215.887-486.894,208.997-493.784 c-5.742-5.741-327.275,220.48-499.525,351.39c-578.76,440.96-911.776,833.69-1196.563,1412.45 c-56.268,114.833-107.943,208.997-114.833,208.997c-20.67,0-2.297-105.647,41.34-234.26 c164.211-490.339,594.836-1005.94,1291.874-1547.953l107.944-83.829l102.201-298.566c96.46-281.342,101.054-298.567,81.532-313.495 c-22.967-17.225-101.053-12.632-120.575,6.89c-6.89,6.89-44.785,106.795-84.977,221.628 c-40.191,114.833-78.086,214.738-83.828,220.48c-28.708,28.708-24.115-37.895,14.928-226.222 c22.967-110.24,41.34-215.886,41.34-234.259c0-25.264-12.631-44.785-45.933-75.79c-25.263-22.967-51.675-41.34-57.417-41.34 c-18.373,0-31.005,37.895-63.158,183.733c-16.077,72.345-62.01,260.671-101.053,419.141 c-56.269,225.074-76.939,288.232-91.867,290.529c-13.78,2.296-19.522-3.445-19.522-20.67c0-29.857,93.015-589.095,133.207-802.685 c33.302-180.288,48.23-214.738,95.312-225.073c44.785-9.187,84.976,12.631,156.173,84.976 c66.603,68.9,102.202,81.532,227.37,81.532c99.905,0,134.355,19.522,134.355,79.235c0,17.225-41.34,146.986-91.867,288.231 c-50.526,141.245-89.57,258.375-87.273,260.672c2.297,2.297,39.043-19.522,82.68-48.23 c114.833-79.235,206.7-122.872,249.188-118.278c35.599,3.445,36.747,4.593,35.599,60.861 c-6.89,264.117-574.167,1342.402-1019.72,1934.942c-111.388,148.135-329.572,372.06-485.745,496.08 c-87.273,70.048-165.36,145.838-243.447,237.705c-177.991,210.145-259.523,273.303-401.916,313.495 C2866.239,5692.678,2824.899,5691.53,2731.884,5660.525z" fill="#000000" style="fill: rgb(255, 255, 255);"></path><path d="M4340.699,5506.648c-48.23-84.976-257.226-403.065-319.236-485.745l-48.23-62.01l36.746-37.895 c19.522-20.67,40.192-34.45,45.934-31.005c4.593,3.445,53.971,73.494,109.091,157.322l99.905,150.432l13.78-60.862 c17.225-78.087,50.527-111.388,125.168-128.613c87.274-19.522,197.514,8.038,566.129,138.948 c34.45,12.632,36.746,17.225,36.746,70.048c0,31.005-1.148,56.269-3.445,56.269c-2.296,0-75.79-26.412-163.063-58.565 c-440.96-159.619-512.157-140.097-442.108,113.685c12.631,47.081,39.043,118.278,57.416,159.618 c19.522,41.34,34.45,76.938,34.45,79.235c0,2.297-25.263,4.593-56.268,4.593h-56.268L4340.699,5506.648z" fill="#000000" style="fill: rgb(255, 255, 255);"></path><path d="M2705.473,5398.705c-26.412-20.67-31.005-32.153-27.56-72.345c3.445-43.637,5.741-47.082,40.191-50.527 c26.412-2.296,45.934,5.742,76.939,32.154c50.526,44.785,52.823,73.493,6.89,97.608 C2757.148,5428.562,2742.219,5427.413,2705.473,5398.705z" fill="#000000" style="fill: rgb(255, 255, 255);"></path><path d="M321.533,5365.403c0-12.631,29.857-40.191,177.992-165.36c101.053-84.976,103.35-86.125,125.168-64.306 c20.67,20.67,20.67,21.818-2.296,50.526C548.903,5280.427,321.533,5415.93,321.533,5365.403z" fill="#000000" style="fill: rgb(255, 255, 255);"></path><path d="M1065.653,5298.8c-41.34-42.488-90.718-109.092-110.24-146.987c-35.598-70.048-35.598-71.196-12.632-91.866 c13.78-11.484,26.412-16.077,32.154-9.187c20.67,22.967,196.365,304.308,196.365,314.643 C1171.3,5394.112,1134.553,5371.145,1065.653,5298.8z" fill="#000000" style="fill: rgb(255, 255, 255);"></path><path d="M1678.863,5319.47c-107.943-43.637-164.212-121.723-213.59-292.825c-40.192-137.8-84.977-226.222-163.063-315.792 c-191.772-221.628-258.375-321.533-351.39-532.826c-29.857-67.752-55.12-126.317-55.12-128.614c0-2.296,27.56-4.593,60.861-4.593 h59.714l65.455,135.503c81.531,168.805,150.431,273.304,274.451,421.439c146.987,174.546,174.547,226.221,238.854,448.998 c19.521,65.455,33.301,90.718,68.9,122.872c66.603,59.713,129.761,66.603,242.298,27.56 c48.23-17.225,101.053-31.005,118.278-31.005c36.747,0,37.895-4.594,6.89-43.637l-22.966-29.857l35.598-29.856l35.598-28.709 l-49.378-35.598c-27.56-19.522-66.603-59.713-87.273-90.718c-63.159-95.312-40.192-133.207,33.301-56.269 c51.675,55.12,104.499,87.274,191.772,119.427c39.043,13.78,71.197,29.857,71.197,33.302c0,4.593-25.264,27.56-57.417,50.526 c-31.005,24.115-57.417,48.23-57.417,55.12c0,5.742,18.374,37.895,40.192,71.197c21.818,32.153,40.192,63.158,40.192,66.603 c0,4.594-48.23,10.335-105.647,12.632c-83.828,4.593-120.575,12.632-169.953,35.598c-50.527,24.115-79.235,31.005-143.542,29.857 C1742.021,5329.805,1693.791,5325.212,1678.863,5319.47z" fill="#000000" style="fill: rgb(255, 255, 255);"></path><path d="M1774.175,5119.66c-10.335-16.077-17.225-42.488-14.929-60.862c3.445-27.56,9.187-32.153,44.785-35.598 c29.857-2.297,48.23,3.445,71.197,25.263c36.747,34.45,37.895,45.934,8.038,75.79 C1851.113,5156.407,1795.993,5154.11,1774.175,5119.66z" fill="#000000" style="fill: rgb(255, 255, 255);"></path><path d="M5018.216,5019.755c-189.475-75.79-450.147-189.475-616.655-269.858c-190.624-91.867-184.882-86.125-133.207-150.432 l20.67-24.115l103.35,34.45c90.718,29.857,126.317,35.598,287.083,43.637c101.054,4.593,215.887,14.928,256.079,22.966 l71.196,14.929v43.636c0,25.264-1.148,44.785-2.296,44.785c-2.297,0-47.082-8.038-101.054-17.225 c-109.091-19.521-218.183-22.966-218.183-6.89c0,11.484,183.733,91.867,338.758,148.135l91.867,33.302l3.445,59.713 c2.297,32.154-1.148,58.565-5.742,57.417C5108.934,5054.205,5065.297,5038.128,5018.216,5019.755z" fill="#000000" style="fill: rgb(255, 255, 255);"></path><path d="M806.13,4938.223c-8.038-8.038-13.78-17.225-13.78-21.818c0-3.445,26.412-52.823,58.565-109.092 c33.301-56.268,76.938-141.245,98.756-188.326l40.192-86.125l33.302,40.191c17.225,21.819,33.301,47.082,33.301,56.269 c0,40.191-198.661,322.681-227.369,322.681C824.503,4952.003,814.168,4946.262,806.13,4938.223z" fill="#000000" style="fill: rgb(255, 255, 255);"></path><path d="M551.2,4769.418c-111.388-35.598-229.667-105.646-229.667-135.503c0-8.038,4.594-14.928,10.335-14.928 c11.484,0,349.094,114.833,354.835,120.575c2.297,2.296,1.149,14.928-3.445,27.56 C674.072,4796.978,638.473,4798.127,551.2,4769.418z" fill="#000000" style="fill: rgb(255, 255, 255);"></path><path d="M1883.266,4751.045c-122.871-40.192-187.178-136.652-211.293-318.088c-18.373-140.097-24.115-151.58-145.838-321.534 c-50.527-71.196-99.905-142.393-107.944-158.469c-14.928-29.857-14.928-32.154,31.005-57.417l47.082-26.412l20.67,27.56 c76.938,99.905,231.963,338.758,245.743,378.95c9.187,26.412,17.225,74.642,17.225,106.795 c0,196.365,117.13,304.308,293.974,272.155c45.933-8.038,80.383-9.187,106.795-1.148c21.818,5.741,41.34,9.186,44.785,6.89 c2.296-2.297-4.594-20.67-13.78-40.192c-24.115-45.933-22.967-55.12,8.038-63.158c59.713-16.077,60.862-25.264,9.187-81.532 c-75.79-81.532-128.614-203.255-135.504-312.347c-8.038-126.316,20.67-269.858,49.379-241.149 c4.593,4.593,10.335,42.488,12.631,84.976c10.335,166.508,57.417,295.122,151.58,412.252 c25.264,32.153,64.307,71.196,87.274,86.125c21.818,14.928,39.043,32.153,36.746,37.895c-1.148,4.593-31.005,21.818-65.455,35.598 c-72.345,31.005-73.493,36.747-35.598,130.91l25.263,62.01l-60.861-10.335c-71.197-11.483-165.36-11.483-279.045-1.148 C1957.908,4765.973,1920.013,4763.677,1883.266,4751.045z" fill="#000000" style="fill: rgb(255, 255, 255);"></path><path d="M1986.616,4567.312c-20.67-25.264-20.67-96.46,1.149-110.24c27.56-17.225,45.933-11.484,87.273,29.856 c37.895,37.895,39.043,42.489,22.967,66.604C2077.335,4585.685,2008.435,4593.723,1986.616,4567.312z" fill="#000000" style="fill: rgb(255, 255, 255);"></path><path d="M738.378,4283.673c-196.365-16.076-395.026-83.828-451.295-155.025c-20.67-26.411-24.115-40.191-17.225-83.828 c4.594-28.708,5.742-66.603,4.594-86.125c-11.484-127.465-5.742-161.915,39.043-228.518 c42.488-64.307,43.637-65.455,35.598-149.283c-11.483-128.614,14.929-188.327,149.284-336.462 c35.598-37.895,64.306-72.345,64.306-75.79c0-2.297-95.311-44.785-212.441-94.163C32.153,2941.272,1.148,2905.674,0,2681.749 v-129.762h34.45c63.158,0,80.383,32.153,80.383,146.987c0,107.943,18.374,156.173,71.197,190.623 c59.713,39.043,591.392,251.485,643.067,257.227c98.756,9.186,241.149-56.269,383.543-177.992l73.493-62.01l34.45,26.412 c19.522,13.78,34.45,29.856,34.45,35.598c0,33.302-219.332,196.365-329.572,244.595c-84.976,37.895-150.431,44.785-243.446,27.56 c-99.905-18.373-124.02-6.89-221.628,111.388c-88.422,105.647-101.054,128.614-101.054,174.547c0,42.488,2.297,42.488,62.01,8.038 c58.565-34.45,183.734-75.79,227.37-75.79c32.154,0,33.302,2.297,26.412,37.895c-10.335,44.785-10.335,45.934-76.938,70.049 c-130.91,48.23-288.232,187.178-303.16,266.413c-9.187,51.675,9.186,74.642,39.043,47.082 c33.302-29.857,164.212-84.977,238.853-101.054c64.307-12.631,73.494-11.483,159.618,19.522 c129.762,45.933,198.662,42.488,370.912-18.373c177.992-63.159,200.958-66.604,225.073-32.154 c17.225,24.115,17.225,27.56-1.148,41.34c-35.598,27.56-184.882,93.015-282.49,124.02c-127.465,40.192-218.183,40.192-322.681,0 c-93.015-36.746-129.762-34.45-253.782,17.225c-103.35,42.489-158.47,90.718-152.728,134.355 c6.89,56.268,110.24,94.163,367.466,134.355c35.599,5.742,43.637,12.632,55.12,47.082c8.038,21.818,11.483,41.34,9.187,43.636 C846.321,4291.712,796.943,4288.267,738.378,4283.673z" fill="#000000" style="fill: rgb(255, 255, 255);"></path><path d="M2371.308,4240.037c-9.187-18.374-17.225-39.044-17.225-45.934s75.79-11.483,223.925-11.483 c122.871,0,223.925,4.593,223.925,10.335c0,4.593-5.742,25.263-12.632,45.933l-12.632,35.599h-194.068h-192.92L2371.308,4240.037z" fill="#000000" style="fill: rgb(255, 255, 255);"></path><path d="M3858.399,4121.758c0-22.966,96.46-174.546,176.844-276.748c168.804-214.738,583.353-566.128,581.056-491.486 c0,4.593-105.647,113.685-233.112,244.595c-127.465,129.761-290.528,303.16-362.873,386.988 C3898.591,4125.203,3858.399,4159.653,3858.399,4121.758z" fill="#000000" style="fill: rgb(255, 255, 255);"></path><path d="M2928.249,3858.79c-67.751-26.411-142.393-28.708-556.941-19.521l-183.733,4.593l-76.939-36.747 c-82.68-39.043-93.015-55.12-55.12-89.57c21.819-19.521,26.412-19.521,90.719-1.148c104.498,28.708,207.848,34.45,343.351,18.373 c244.595-29.856,389.285-13.78,536.272,59.714c60.861,31.005,59.713,28.708,28.708,60.861 C3022.413,3889.795,3010.929,3889.795,2928.249,3858.79z" fill="#000000" style="fill: rgb(255, 255, 255);"></path><path d="M1715.61,3768.072c-172.25-86.125-280.194-189.475-280.194-268.71c0-166.508,253.782-175.695,571.87-22.967 c129.762,62.01,130.91,63.159,114.834,88.422c-25.264,39.043-51.675,37.895-146.987-5.742 c-145.838-65.455-240.002-93.015-324.978-94.163c-63.159,0-81.532,4.593-94.164,20.67 c-37.895,51.675,37.895,124.02,222.777,212.442c73.493,34.45,135.503,65.455,137.8,67.751c9.187,6.89-49.378,60.862-66.603,60.862 C1839.63,3826.637,1778.768,3800.225,1715.61,3768.072z" fill="#000000" style="fill: rgb(255, 255, 255);"></path><path d="M3070.643,3657.832c-43.637-56.268-122.872-145.838-177.992-200.958c-82.68-86.125-104.498-101.054-135.503-101.054 c-31.005,0-39.044,5.742-53.972,40.192c-8.038,21.818-16.077,66.603-16.077,99.905c0,91.867-4.593,94.163-104.498,78.087 c-134.355-22.967-265.265-64.307-401.916-128.614l-127.465-59.713l6.89-39.043c3.445-21.819,8.038-42.489,11.483-45.934 c3.445-2.296,41.34,12.632,84.977,35.599c98.756,51.675,265.265,107.943,349.093,118.278l63.158,6.89l8.038-43.637 c12.632-65.455,49.379-137.8,83.829-160.766c37.895-24.115,102.201-25.264,148.135-1.149 c62.01,32.154,152.728,122.872,276.748,276.749c66.603,82.68,122.872,157.321,126.317,165.36 c5.741,12.631-36.747,58.565-55.12,59.713C3153.323,3757.737,3114.279,3712.952,3070.643,3657.832z" fill="#000000" style="fill: rgb(255, 255, 255);"></path><path d="M866.991,3699.172c-84.976-28.708-98.756-41.34-84.976-78.087c9.187-22.966,16.077-25.263,53.971-19.521 c22.967,3.445,73.494,10.335,111.389,13.78c66.603,6.89,70.048,5.741,104.498-28.709c39.043-40.191,81.532-122.871,70.048-135.503 c-4.593-3.445-65.455-10.335-136.651-13.78l-129.762-6.89l3.445-28.708c8.038-51.675,20.67-57.417,138.948-56.269 c60.862,1.149,126.317,4.594,144.69,9.187c31.005,6.89,41.34,1.148,104.499-64.307c93.015-95.311,188.326-141.245,312.346-149.283 c103.35-6.89,176.844,5.742,299.715,55.12c111.389,44.785,120.575,52.823,103.35,99.905c-6.89,20.67-14.928,36.747-17.225,36.747 c-3.445,0-29.856-12.632-59.713-27.56c-165.36-83.829-349.093-98.757-453.592-37.895c-75.79,44.785-145.838,128.613-213.59,258.375 c-33.301,62.01-78.086,130.91-99.905,152.728c-34.45,33.302-47.081,37.895-111.388,41.34 C956.561,3722.139,916.37,3716.397,866.991,3699.172z" fill="#000000" style="fill: rgb(255, 255, 255);"></path><path d="M3310.644,3563.669c-98.756-63.159-226.221-195.217-323.83-331.869c-58.565-82.68-99.905-129.761-136.651-152.728 c-60.862-39.043-156.174-75.79-218.184-86.125c-42.488-5.742-42.488-5.742-70.048,53.972 c-51.675,115.981-160.766,204.403-251.485,205.551c-21.818,0-78.086-13.78-126.316-29.856 c-115.982-37.895-415.697-184.882-423.735-207.849c-3.445-9.186,3.445-27.56,17.225-40.191l24.115-24.115l169.953,75.79 c288.232,127.465,341.055,137.8,411.103,74.641c22.967-19.521,53.972-59.713,68.9-90.718l27.56-53.972l-25.263-6.89 c-13.78-3.445-99.905-12.631-191.772-19.521c-91.866-6.89-177.991-14.929-191.771-17.225c-22.967-4.594-55.12-64.307-41.34-78.087 c11.483-10.335,168.805-8.038,307.753,4.593c221.628,20.67,414.548,66.604,539.716,128.614 c58.565,28.708,76.939,33.301,126.317,27.56c71.197-9.187,168.805,14.928,260.672,64.306 c99.905,52.824,124.02,79.235,124.02,135.504c0,25.263-2.297,45.933-5.742,45.933c-3.445,0-33.302-20.67-66.603-45.933 c-76.939-57.417-146.987-88.422-225.074-98.757c-74.641-9.187-74.641-9.187,13.78,119.427 c75.79,112.536,187.179,223.925,287.084,288.231c42.488,27.56,76.938,51.675,76.938,52.824c0,4.593-75.79,51.675-82.68,51.675 C3381.841,3608.454,3348.539,3588.932,3310.644,3563.669z" fill="#000000" style="fill: rgb(255, 255, 255);"></path><path d="M3667.776,3376.49c-133.207-264.116-390.433-508.711-636.177-604.023c-73.493-28.708-81.531-29.857-476.558-37.895 c-400.768-6.89-401.916-8.038-543.161-43.637c-78.087-19.521-168.805-35.598-202.107-35.598c-73.493,0-179.14,34.45-234.26,76.938 l-40.192,29.857l49.379,42.488l48.23,41.34l-27.56,33.302l-28.709,32.153l-223.925-166.508l-223.925-167.657l-6.89,78.087 c-10.335,129.762-60.861,198.662-180.288,250.337c-51.675,21.818-51.675,21.818-94.163-2.297 c-24.115-12.632-42.488-28.708-40.192-34.45c2.297-4.593,27.56-18.373,56.268-29.857c28.709-11.483,70.049-32.153,89.57-45.933 c68.9-49.378,97.609-161.915,68.9-266.413c-24.115-84.977-149.283-158.47-271.006-158.47c-57.417,0-84.977-21.818-84.977-70.048 c0-32.154,2.297-33.302,55.12-33.302c62.01,0,168.805,25.263,230.815,55.12c32.153,14.928,258.375,184.881,480.003,360.576 c10.335,8.039,26.412,1.149,55.12-24.115c82.68-72.345,206.7-115.981,329.572-115.981c51.675,0,128.613,12.631,219.332,36.746 c140.096,35.599,140.096,35.599,536.271,43.637c440.96,8.038,455.888,10.335,620.1,99.905 c222.777,120.575,453.592,361.725,573.018,597.133c12.632,26.412,24.115,52.824,24.115,57.417c0,9.187-73.493,60.862-86.125,60.862 C3701.078,3436.204,3683.853,3408.644,3667.776,3376.49z" fill="#000000" style="fill: rgb(255, 255, 255);"></path></g></svg>